<?xml version="1.0" encoding="UTF-8" standalone="no"?>
<!-- Created with Inkscape (http://www.inkscape.org/) -->

<svg
   xmlns:dc="http://purl.org/dc/elements/1.1/"
   xmlns:cc="http://creativecommons.org/ns#"
   xmlns:rdf="http://www.w3.org/1999/02/22-rdf-syntax-ns#"
   xmlns:svg="http://www.w3.org/2000/svg"
   xmlns="http://www.w3.org/2000/svg"
   xmlns:sodipodi="http://sodipodi.sourceforge.net/DTD/sodipodi-0.dtd"
   xmlns:inkscape="http://www.inkscape.org/namespaces/inkscape"
   width="45.138119mm"
   height="50.652874mm"
   viewBox="0 0 45.138119 50.652874"
   version="1.1"
   id="svg3541"
   inkscape:version="0.92.2 (unknown)"
   sodipodi:docname="footer_logo.svg">
  <defs
     id="defs3535" />
  <sodipodi:namedview
     id="base"
     pagecolor="#ffffff"
     bordercolor="#666666"
     borderopacity="1.0"
     inkscape:pageopacity="0.0"
     inkscape:pageshadow="2"
     inkscape:zoom="1.4"
     inkscape:cx="121.00032"
     inkscape:cy="56.25006"
     inkscape:document-units="mm"
     inkscape:current-layer="layer1"
     showgrid="false"
     inkscape:window-width="1366"
     inkscape:window-height="701"
     inkscape:window-x="0"
     inkscape:window-y="24"
     inkscape:window-maximized="1" />
  <metadata
     id="metadata3538">
    <rdf:RDF>
      <cc:Work
         rdf:about="">
        <dc:format>image/svg+xml</dc:format>
        <dc:type
           rdf:resource="http://purl.org/dc/dcmitype/StillImage" />
        <dc:title></dc:title>
      </cc:Work>
    </rdf:RDF>
  </metadata>
  <g
     inkscape:label="Layer 1"
     inkscape:groupmode="layer"
     id="layer1"
     transform="translate(-122.13454,-78.56691)">
    <polygon
       transform="matrix(8.4456506e-5,0,0,8.4456506e-5,122.11148,78.546303)"
       style="clip-rule:evenodd;fill:#ffffff;fill-rule:evenodd;image-rendering:optimizeQuality;shape-rendering:geometricPrecision;text-rendering:geometricPrecision"
       class="fil1"
       points="518493,18462 518493,581777 16507,581777 16507,18462 "
       id="polygon3844" />
    <path
       style="clip-rule:evenodd;fill:#25185a;fill-rule:evenodd;stroke-width:0.00008442;image-rendering:optimizeQuality;shape-rendering:geometricPrecision;text-rendering:geometricPrecision"
       inkscape:connector-curvature="0"
       class="fil0"
       d="m 124.94144,126.16709 h 2.08239 v -0.9573 c 0,-5.4668 4.33145,-9.95661 9.67451,-9.95661 5.34298,0 9.67443,4.48981 9.67443,9.95661 0,0.32284 -0.015,0.64194 -0.0449,0.9573 h 18.07936 v -14.78041 h -2.26337 v 0.2397 c 0.03,0.28164 0.045,0.56778 0.045,0.85782 0,4.32486 -3.42666,7.83084 -7.65354,7.83084 -4.22696,0 -7.65354,-3.50598 -7.65354,-7.83084 V 81.480528 H 130.9153 v 3.009282 c 6.95444,0 12.5921,5.768226 12.5921,12.88379 0,7.11556 -5.63774,12.88379 -12.5921,12.88379 h -5.97459 v 15.90977 z"
       id="path3846" />
  </g>
</svg>
